<svg xmlns="http://www.w3.org/2000/svg" viewBox="0 0 64 64" role="img" aria-label="BLOCKBURB">
  <defs>
    <linearGradient id="shell" x1="8" y1="6" x2="56" y2="58" gradientUnits="userSpaceOnUse">
      <stop offset="0" stop-color="#111821"/>
      <stop offset="1" stop-color="#07090d"/>
    </linearGradient>
    <filter id="amber-glow" x="-20%" y="-20%" width="140%" height="140%">
      <feGaussianBlur stdDeviation="1.1" result="blur"/>
      <feMerge>
        <feMergeNode in="blur"/>
        <feMergeNode in="SourceGraphic"/>
      </feMerge>
    </filter>
  </defs>

  <rect width="64" height="64" rx="9" fill="url(#shell)"/>
  <path d="M6 10h52v44H6z" fill="none" stroke="#273442" stroke-width="2"/>

  <g fill="#edf3f9">
    <path d="M11 12h6v34h-6z"/>
    <path d="M17 12h12l6 6v7l-4 4 5 5v6l-6 6H17v-7h10l2-2v-4l-2-2H17v-7h9l2-2v-3l-2-2h-9z"/>
  </g>

  <g fill="none" stroke="#ffb03c" stroke-linejoin="miter" stroke-width="4" filter="url(#amber-glow)">
    <path d="M36 14h12l5 5v6l-4 4 5 5v5l-5 5H36z"/>
    <path d="M42 22h5"/>
    <path d="M42 36h6"/>
  </g>

  <g clip-path="url(#hazard-clip)">
    <rect x="8" y="51" width="48" height="5" fill="#ffb03c"/>
    <path d="M10 58l7-9h7l-7 9zm17 0l7-9h7l-7 9zm17 0l7-9h7l-7 9z" fill="#07090d"/>
  </g>
  <defs>
    <clipPath id="hazard-clip">
      <rect x="8" y="51" width="48" height="5"/>
    </clipPath>
  </defs>
</svg>
